HIERARCHY
ROOT Hips
{
	OFFSET 0.000000 0.000000 0.000000 
	CHANNELS 6 Xposition Yposition Zposition Yrotation Zrotation Xrotation 
	JOINT Lumbar
	{
		OFFSET 0.000000 0.000000 0.000000 
		CHANNELS 3 Zrotation Xrotation Yrotation
		JOINT Neck
		{
			OFFSET 0.000000 0.445665 0.000000 
			CHANNELS 3 Zrotation Xrotation Yrotation
			End Site
			{
				OFFSET 0.000000 0.227535 0.000000 
			}
		}
		JOINT RightShoulder
		{
			OFFSET 0.019635 0.377685 0.194865 
			CHANNELS 3 Zrotation Xrotation Yrotation
			JOINT RightElbow
			{
				OFFSET 0.000000 -0.243375 0.000000 
				CHANNELS 2 Zrotation Yrotation
				JOINT RightWrist
				{
					OFFSET 0.000000 -0.264825 0.000000 
					CHANNELS 2 Zrotation Xrotation
					End Site
					{
						OFFSET 0.006600 -0.176220 0.000990 
					}
				}
			}
		}
		JOINT LeftShoulder
		{
			OFFSET 0.019635 0.377685 -0.194865 
			CHANNELS 3 Zrotation Xrotation Yrotation
			JOINT LeftElbow
			{
				OFFSET 0.000000 -0.243375 0.000000 
				CHANNELS 2 Zrotation Yrotation
				JOINT LeftWrist
				{
					OFFSET 0.000000 -0.264825 0.000000 
					CHANNELS 2 Zrotation Xrotation
					End Site
					{
						OFFSET 0.006600 -0.176220 -0.000990 
					}
				}
			}
		}
	}
	JOINT RightHip
	{
		OFFSET 0.052140 -0.069960 0.075570 
		CHANNELS 3 Zrotation Xrotation Yrotation
		JOINT RightKnee
		{
			OFFSET 0.000000 -0.402270 0.000000 
			CHANNELS 1 Zrotation
			JOINT RightAnkle
			{
				OFFSET 0.000000 -0.404085 0.000000 
				CHANNELS 3 Zrotation Xrotation Yrotation
				End Site
				{
					OFFSET 0.204105 -0.089430 0.008415 
				}
			}
		}
	}
	JOINT LeftHip
	{
		OFFSET 0.052140 -0.069960 -0.075570 
		CHANNELS 3 Zrotation Xrotation Yrotation
		JOINT LeftKnee
		{
			OFFSET 0.000000 -0.402270 0.000000 
			CHANNELS 1 Zrotation
			JOINT LeftAnkle
			{
				OFFSET 0.000000 -0.404085 0.000000 
				CHANNELS 3 Zrotation Xrotation Yrotation
				End Site
				{
					OFFSET 0.204105 -0.089430 -0.008415 
				}
			}
		}
	}
}
MOTION
Frames: 28
Frame Time: 0.02
-9e-05 -4e-05 -6e-05 23.17338 -29.50111 -7.66157 48.05865 2.95911 -2.77441 -11.02999 -2.6537 -0.14151 36.54285 -106.25089 64.1686 9.58212 85.50729 6.63886 -1.69976 12.48948 107.42188 -64.13014 9.41911 -82.47571 2.71013 2.63839 44.9242 -3.81303 -4.744 -21.54033 -6.96127 -3.16576 -2.30871 48.92697 9.2886 0.6258 -26.84988 -7.35986 3.27612 2.39326
-8e-05 -4e-05 -2e-05 23.17168 -29.50492 -7.66646 48.06235 2.96093 -2.77413 -11.0196 -2.65965 -0.14162 36.64445 -106.24304 64.16883 9.56731 85.50834 6.63002 -1.69875 12.48062 107.42291 -64.12989 9.41019 -82.46642 2.66901 2.61879 44.92767 -3.78968 -4.6615 -21.53525 -6.96393 -3.17765 -2.31554 48.93365 9.27293 0.53009 -26.85235 -7.36347 3.28787 2.39969
-8e-05 -4e-05 2e-05 23.16998 -29.50872 -7.67135 48.06604 2.96274 -2.77386 -11.00923 -2.66559 -0.14172 36.74584 -106.23525 64.16906 9.55255 85.50939 6.62117 -1.69774 12.47191 107.42399 -64.12956 9.40133 -82.45715 2.62792 2.59924 44.93113 -3.76637 -4.57914 -21.53019 -6.96658 -3.18952 -2.32236 48.94032 9.25732 0.43463 -26.85481 -7.36708 3.2996 2.4061
-7e-05 -4e-05 7e-05 23.16828 -29.51251 -7.67624 48.06973 2.96455 -2.77358 -10.99886 -2.67153 -0.14182 36.84713 -106.22743 64.16929 9.53778 85.51043 6.61236 -1.69673 12.4631 107.42503 -64.12934 9.39245 -82.44789 2.58692 2.5797 44.93458 -3.74308 -4.49686 -21.52512 -6.96923 -3.20138 -2.32917 48.94698 9.2417 0.3392 -26.85727 -7.37069 3.31131 2.41251
-6e-05 -4e-05 0.00011 23.16658 -29.51632 -7.68113 48.07344 2.96638 -2.77329 -10.98849 -2.67748 -0.14192 36.94862 -106.21954 64.16952 9.52294 85.51148 6.60354 -1.69573 12.45409 107.42597 -64.12909 9.38348 -82.4386 2.5459 2.56013 44.93805 -3.71977 -4.41449 -21.52005 -6.97188 -3.21326 -2.33599 48.95366 9.22605 0.24356 -26.85974 -7.3743 3.32306 2.41893
-6e-05 -4e-05 0.00015 23.1649 -29.52009 -7.68602 48.07708 2.96815 -2.77306 -10.97815 -2.68338 -0.14202 37.0498 -106.21194 64.16975 9.50837 85.51253 6.59463 -1.69469 12.44602 107.42734 -64.12855 9.37485 -82.42938 2.50468 2.5406 44.94149 -3.69647 -4.33216 -21.515 -6.97453 -3.22514 -2.34281 48.9603 9.21052 0.14848 -26.86219 -7.3779 3.33475 2.42532
-5e-05 -4e-05 0.00019 23.16318 -29.52393 -7.6909 48.08086 2.97003 -2.77272 -10.96773 -2.68938 -0.14213 37.15143 -106.20377 64.16998 9.49327 85.51356 6.58595 -1.69372 12.43605 107.42789 -64.1289 9.36557 -82.42004 2.46392 2.52103 44.94498 -3.67317 -4.24982 -21.5099 -6.97717 -3.23699 -2.34963 48.96702 9.19474 0.05233 -26.86467 -7.38152 3.34653 2.43177
-4e-05 -4e-05 0.00024 23.16149 -29.52771 -7.69579 48.08452 2.97181 -2.77246 -10.9574 -2.69529 -0.14223 37.25277 -106.19612 64.1702 9.47868 85.51462 6.57702 -1.6927 12.42786 107.42913 -64.12786 9.35687 -82.4108 2.42274 2.50146 44.94842 -3.64988 -4.16755 -21.50485 -6.97983 -3.24886 -2.35644 48.97366 9.17921 -0.04276 -26.86712 -7.38512 3.35823 2.43816
-4e-05 -4e-05 0.00028 23.15984 -29.53142 -7.70069 48.08798 2.97346 -2.77236 -10.9471 -2.70108 -0.14233 37.35331 -106.18915 64.17043 9.4646 85.51568 6.56793 -1.69156 12.42176 107.43148 -64.12738 9.34893 -82.40171 2.38099 2.48202 44.95183 -3.62654 -4.08503 -21.49987 -6.9825 -3.26079 -2.36326 48.98023 9.16393 -0.13687 -26.86955 -7.3887 3.36983 2.4445
-3e-05 -4e-05 0.00032 23.15799 -29.53553 -7.70555 48.09243 2.97586 -2.77153 -10.93638 -2.70755 -0.14245 37.45712 -106.1784 64.17067 9.44725 85.51666 6.56017 -1.69093 12.40339 107.42827 -64.13045 9.33676 -82.39185 2.34237 2.46221 44.95552 -3.60328 -4.00292 -21.49451 -6.98507 -3.27249 -2.3701 48.98728 9.14702 -0.23757 -26.87215 -7.39243 3.382 2.45118
-2e-05 -4e-05 0.00036 23.15654 -29.53878 -7.71047 48.09487 2.97666 -2.77211 -10.92673 -2.71259 -0.14252 37.55487 -106.17554 64.17087 9.43699 85.51784 6.54935 -1.68933 12.41105 107.43622 -64.12172 9.33345 -82.38355 2.29723 2.44296 44.95855 -3.58 -3.92064 -21.48994 -6.98785 -3.2846 -2.37684 48.99326 9.13367 -0.32374 -26.87437 -7.39582 3.39295 2.45712
0 -3e-05 0.0004 23.1566 -29.53998 -7.71572 48.09131 2.97313 -2.77782 -10.91857 -2.71351 -0.14243 37.62909 -106.19525 64.17099 9.44555 85.51978 6.53147 -1.68451 12.49052 107.47965 -64.11249 9.35551 -82.38025 2.23314 2.42703 44.96012 -3.55536 -3.83209 -21.48753 -6.99137 -3.29856 -2.38372 48.99689 9.1291 -0.37489 -26.87559 -7.39838 3.40085 2.46122
3e-05 -2e-05 0.00044 23.15703 -29.54029 -7.721 48.08582 2.96797 -2.78476 -10.91177 -2.71302 -0.1423 37.69865 -106.22279 64.17095 9.46187 85.52228 6.50971 -1.67893 12.59659 107.53322 -64.08341 9.38642 -82.37843 2.16267 2.41127 44.96097 -3.53093 -3.74436 -21.48593 -6.99506 -3.31282 -2.39042 48.99938 9.12826 -0.41062 -26.87641 -7.40058 3.40748 2.46453
5e-05 -2e-05 0.00047 23.15699 -29.5408 -7.72615 48.08151 2.96355 -2.79025 -10.90525 -2.71326 -0.1422 37.7746 -106.24604 64.17114 9.47437 85.5239 6.48963 -1.67389 12.68954 107.5792 -64.04524 9.41244 -82.37547 2.09583 2.39441 44.96187 -3.50726 -3.66014 -21.48394 -6.99855 -3.32646 -2.39692 49.00198 9.1264 -0.45013 -26.87737 -7.40287 3.41453 2.46805
8e-05 -1e-05 0.00051 23.15808 -29.54211 -7.73177 48.07588 2.95923 -2.79928 -10.89487 -2.71308 -0.14203 37.83184 -106.27209 64.17119 9.48595 85.52654 6.47229 -1.66751 12.78471 107.63847 -64.09206 9.44159 -82.3744 2.02597 2.38224 44.96387 -3.48004 -3.55989 -21.48198 -7.00259 -3.34211 -2.40459 49.00617 9.12182 -0.5029 -26.8785 -7.40549 3.42225 2.47221
0.0001 0 0.00054 23.15708 -29.54161 -7.73642 48.07261 2.95422 -2.80149 -10.89294 -2.71349 -0.14201 37.92779 -106.29455 64.17085 9.504 85.5292 6.44533 -1.6644 12.8843 107.6716 -63.94642 9.46699 -82.36982 1.96081 2.35988 44.96349 -3.46021 -3.49275 -21.48022 -7.0055 -3.35368 -2.4098 49.00693 9.12363 -0.52479 -26.87921 -7.40732 3.42824 2.47485
0.00013 1e-05 0.00054 23.14877 -29.53575 -7.73857 48.0757 2.94839 -2.78234 -10.91346 -2.71547 -0.14241 38.12679 -106.30146 64.17193 9.51608 85.51331 6.41842 -1.66436 12.96697 107.63709 -63.36528 9.47489 -82.35505 1.91082 2.31328 44.95581 -3.46108 -3.52097 -21.47833 -7.00528 -3.35352 -2.40792 48.99719 9.14326 -0.46219 -26.8787 -7.40714 3.4301 2.47366
0.00016 2e-05 0.00053 23.13859 -29.52819 -7.7397 48.08138 2.94179 -2.75668 -10.9426 -2.71818 -0.14297 38.36737 -106.30488 64.17016 9.53933 85.50003 6.37727 -1.66849 13.05801 107.57437 -62.57383 9.48017 -82.3371 1.86563 2.25575 44.9459 -3.46933 -3.58178 -21.47672 -7.00391 -3.34929 -2.40362 48.98425 9.16892 -0.3698 -26.87782 -7.40616 3.43021 2.47097
0.00019 2e-05 0.00053 23.13026 -29.52182 -7.74119 48.08625 2.9351 -2.73544 -10.96809 -2.72083 -0.14345 38.5903 -106.31271 64.17064 9.57085 85.49869 6.32565 -1.67506 13.15923 107.52023 -61.81935 9.48924 -82.3202 1.81793 2.20059 44.9376 -3.47396 -3.6249 -21.47532 -7.00307 -3.34718 -2.40066 48.97365 9.19116 -0.29275 -26.87723 -7.40547 3.43085 2.46884
0.00023 3e-05 0.00052 23.11785 -29.51375 -7.74316 48.08937 2.93023 -2.70807 -10.99224 -2.72224 -0.14394 38.80162 -106.31013 64.17536 9.54293 85.44532 6.34499 -1.66443 13.19971 107.48528 -61.31287 9.48545 -82.30348 1.77163 2.15614 44.92681 -3.47963 -3.67996 -21.47251 -7.00223 -3.34399 -2.3967 48.95936 9.21662 -0.20675 -26.87609 -7.40505 3.43248 2.46711
0.00024 4e-05 0.00052 23.1133 -29.50871 -7.74384 48.09691 2.92136 -2.6919 -11.0215 -2.72646 -0.14445 39.05479 -106.32675 64.16021 9.64557 85.4967 6.21376 -1.68922 13.37161 107.40236 -60.23857 9.51043 -82.28756 1.72333 2.08711 44.92061 -3.48497 -3.71817 -21.47268 -7.00109 -3.34202 -2.3942 48.95189 9.23648 -0.13352 -26.87602 -7.40391 3.43175 2.46429
0.00019 4e-05 0.00053 23.13245 -29.51335 -7.74173 48.11496 2.90199 -2.70833 -11.06018 -2.73812 -0.14493 39.35031 -106.41033 64.18409 10.07183 85.87311 5.66542 -1.82317 13.8789 107.20326 -57.66483 9.59326 -82.25711 1.67108 1.95034 44.92842 -3.48689 -3.69954 -21.48113 -6.99962 -3.34491 -2.39678 48.96529 9.24163 -0.09396 -26.8789 -7.40084 3.42405 2.45808
0.00012 4e-05 0.00054 23.15928 -29.5209 -7.73825 48.13755 2.87854 -2.73619 -11.10415 -2.75262 -0.14542 39.7003 -106.51068 64.1739 10.6366 86.34812 4.96718 -1.9905 14.52444 106.9547 -54.52665 9.71001 -82.23039 1.61625 1.78978 44.94078 -3.48839 -3.66339 -21.49255 -6.99784 -3.34905 -2.40083 48.98545 9.24053 -0.06977 -26.8829 -7.3971 3.41421 2.45096
6e-05 4e-05 0.00055 23.1816 -29.52653 -7.73508 48.15879 2.85674 -2.7588 -11.14741 -2.76595 -0.14592 40.0642 -106.59499 64.11407 11.15886 86.75399 4.34041 -2.13424 15.12109 106.72306 -51.63223 9.8248 -82.21394 1.56073 1.64163 44.95052 -3.49045 -3.63657 -21.50248 -6.99607 -3.35231 -2.40391 49.00169 9.24075 -0.04473 -26.88645 -7.39377 3.40595 2.44475
-0 4e-05 0.00057 23.20818 -29.53472 -7.73322 48.17718 2.8358 -2.78157 -11.18392 -2.77885 -0.14638 40.25818 -106.71554 64.31579 11.59047 87.26235 3.69804 -2.31299 15.65228 106.5154 -48.77274 9.87954 -82.14859 1.51292 1.48593 44.96247 -3.49101 -3.60449 -21.51292 -6.99486 -3.35682 -2.40819 49.02139 9.24743 0.0063 -26.88971 -7.39 3.39508 2.43642
-6e-05 4e-05 0.00057 23.2277 -29.53819 -7.72827 48.20248 2.81205 -2.80663 -11.2355 -2.79325 -0.14693 40.82868 -106.76359 63.98138 12.24964 87.58104 3.05396 -2.42757 16.3612 106.24455 -45.7237 10.07141 -82.18386 1.44876 1.341 44.97097 -3.49475 -3.57955 -21.5231 -6.99239 -3.35896 -2.41032 49.03552 9.2393 0.00036 -26.89387 -7.38695 3.38911 2.43224
-0.00011 3e-05 0.00054 23.22615 -29.52853 -7.71565 48.24626 2.78216 -2.83673 -11.3283 -2.81159 -0.14766 42.32855 -106.61758 62.03126 13.45275 87.34752 2.42845 -2.34887 17.46136 105.82697 -42.1757 10.60109 -82.51633 1.33679 1.22681 44.96847 -3.50529 -3.57174 -21.531 -6.98679 -3.35527 -2.40658 49.03264 9.19009 -0.1694 -26.89998 -7.38632 3.39775 2.44042
-0.00014 3e-05 0.0005 23.2172 -29.51387 -7.69988 48.2967 2.74947 -2.8685 -11.43584 -2.83126 -0.14847 44.21645 -106.39701 59.56957 14.88987 86.92013 1.8068 -2.20577 18.75346 105.34457 -38.48561 11.27447 -82.94735 1.2091 1.12514 44.96237 -3.51939 -3.57262 -21.53869 -6.9799 -3.349 -2.40058 49.02392 9.12654 -0.39398 -26.90701 -7.38639 3.41126 2.45269
